<svg id="レイヤー_1" data-name="レイヤー 1" xmlns="http://www.w3.org/2000/svg" viewBox="0 0 255 255"><title>logo</title><path d="M30.91,210.16H18V178.5c-5,0-9-4.75-9-10.62H0V222c7.72,0,14,5.28,14,11.8h38.4L224.09,44.84h13V76.5c5,0,9,4.75,9,10.62h9V33.05c-7.72,0-14-5.28-14-11.8h-38.4Z" transform="translate(0 0)"/><path d="M18,76.5V44.84h13l73,80.27,21.45-23.59-73-80.27H14c0,6.52-6.24,11.8-14,11.8V87.12H9C9,81.25,13,76.5,18,76.5Z" transform="translate(0 0)"/><path d="M237.05,178.5v31.66h-13l-73-80.27-21.45,23.59,73,80.27H241c0-6.52,6.24-11.8,14-11.8V167.88h-9C246,173.75,242,178.5,237.05,178.5Z" transform="translate(0 0)"/><path d="M178,237.05h-42.5V164.28l-8-8.76-8,8.76v72.77H77V211L61.09,228.57v8.48H31.88c0,5-4.76,9-10.63,9v9h212.5v-9c-5.87,0-10.63-4-10.63-9H193.91v-8.48L178,211Z" transform="translate(0 0)"/><polygon points="77.03 127.5 77.03 100 61.09 82.47 61.09 127.5 61.09 172.53 77.03 155 77.03 127.5"/><path d="M77,18h42.5V90.72l8,8.76,8-8.76V0H21.25V9c.37,0,.74,0,1.1,0h97.18v4.45H30.44A7.86,7.86,0,0,1,31.88,18H61.09v8.48L77,44Z" transform="translate(0 0)"/><polygon points="177.97 127.5 177.97 155 193.91 172.53 193.91 127.5 193.91 82.47 177.97 100 177.97 127.5"/><path d="M193.91,18h29.21c0-5,4.76-9,10.63-9V0H138.13V18H178V44l15.94-17.54Z" transform="translate(0 0)"/></svg>